<svg width="292px" height="46px" viewBox="0 0 292 46" xmlns="http://www.w3.org/2000/svg">
    <path d="M0.7,0.3 L0.7,36 L7.8,36 L7.8,22.45 C7.8,19.8166535 8.233329,17.9250057 9.1,16.775 C9.966671,15.6249942 11.366657,15.05 13.3,15.05 C15.0000085,15.05 16.18333,15.5749948 16.85,16.625 C17.51667,17.6750052 17.85,19.266656 17.85,21.4 L17.85,36 L24.95,36 L24.95,20.1 C24.95,18.499992 24.8083348,17.0416733 24.525,15.725 C24.2416653,14.4083268 23.7500035,13.2916713 23.05,12.375 C22.3499965,11.4583287 21.3916728,10.7416693 20.175,10.225 C18.9583273,9.70833075 17.4000095,9.45 15.5,9.45 C14.16666,9.45 12.800007,9.79166325 11.4,10.475 C9.999993,11.1583367 8.8500045,12.2499925 7.95,13.75 L7.8,13.75 L7.8,0.3 L0.7,0.3 Z M43.1,39.2 L53.9,10.15 L46.55,10.15 L40.9,27.85 L40.8,27.85 L34.95,10.15 L27.4,10.15 L36.45,34.4 C36.650001,34.9000025 36.75,35.4333305 36.75,36 C36.75,36.7666705 36.5250023,37.4666635 36.075,38.1 C35.6249977,38.7333365 34.933338,39.0999995 34,39.2 C33.2999965,39.2333335 32.6000035,39.216667 31.9,39.15 C31.1999965,39.083333 30.51667,39.016667 29.85,38.95 L29.85,44.8 C30.583337,44.866667 31.3083297,44.9249997 32.025,44.975 C32.7416702,45.0250003 33.466663,45.05 34.2,45.05 C36.6333455,45.05 38.5333265,44.6000045 39.9,43.7 C41.2666735,42.7999955 42.3333295,41.3000105 43.1,39.2 Z M74.75,32.7 L74.75,36 L81.5,36 L81.5,0.3 L74.4,0.3 L74.4,13.3 L74.3,13.3 C73.499996,12.033327 72.4083402,11.0750033 71.025,10.425 C69.6416597,9.77499675 68.183341,9.45 66.65,9.45 C64.7499905,9.45 63.0833405,9.82499625 61.65,10.575 C60.2166595,11.3250038 59.0250047,12.3166605 58.075,13.55 C57.1249952,14.7833395 56.4083357,16.2083253 55.925,17.825 C55.4416642,19.4416748 55.2,21.116658 55.2,22.85 C55.2,24.650009 55.4416642,26.383325 55.925,28.05 C56.4083357,29.716675 57.1249952,31.1916602 58.075,32.475 C59.0250047,33.7583398 60.233326,34.7749963 61.7,35.525 C63.166674,36.2750037 64.866657,36.65 66.8,36.65 C68.5000085,36.65 70.0249932,36.3416697 71.375,35.725 C72.7250067,35.1083302 73.8166625,34.100007 74.65,32.7 L74.75,32.7 Z M74.65,23 C74.65,24.066672 74.550001,25.099995 74.35,26.1 C74.149999,27.100005 73.816669,27.9916627 73.35,28.775 C72.883331,29.5583372 72.2583372,30.183331 71.475,30.65 C70.6916628,31.116669 69.7166725,31.35 68.55,31.35 C67.4499945,31.35 66.5083372,31.1083358 65.725,30.625 C64.9416627,30.1416642 64.2916692,29.5083373 63.775,28.725 C63.2583307,27.9416628 62.8833345,27.050005 62.65,26.05 C62.4166655,25.049995 62.3,24.050005 62.3,23.05 C62.3,21.983328 62.4083323,20.9583382 62.625,19.975 C62.8416677,18.9916617 63.1916642,18.1166705 63.675,17.35 C64.1583357,16.5833295 64.799996,15.966669 65.6,15.5 C66.400004,15.033331 67.3833275,14.8 68.55,14.8 C69.7166725,14.8 70.6833295,15.033331 71.45,15.5 C72.2166705,15.966669 72.8416642,16.5749962 73.325,17.325 C73.8083357,18.0750038 74.149999,18.9416618 74.35,19.925 C74.550001,20.9083382 74.65,21.933328 74.65,23 Z M92.7,24.8 L111.35,24.8 C111.483334,22.79999 111.316669,20.8833425 110.85,19.05 C110.383331,17.2166575 109.625005,15.5833405 108.575,14.15 C107.524995,12.7166595 106.183341,11.5750043 104.55,10.725 C102.916658,9.87499575 101.000011,9.45 98.8,9.45 C96.8333235,9.45 95.0416747,9.7999965 93.425,10.5 C91.8083252,11.2000035 90.4166725,12.1583273 89.25,13.375 C88.0833275,14.5916727 87.1833365,16.033325 86.55,17.7 C85.9166635,19.366675 85.6,21.166657 85.6,23.1 C85.6,25.10001 85.9083302,26.933325 86.525,28.6 C87.1416697,30.266675 88.016661,31.699994 89.15,32.9 C90.283339,34.100006 91.6666585,35.0249968 93.3,35.675 C94.9333415,36.3250033 96.7666565,36.65 98.8,36.65 C101.733348,36.65 104.233323,35.98334 106.3,34.65 C108.366677,33.31666 109.899995,31.1000155 110.9,28 L104.65,28 C104.416665,28.800004 103.783338,29.5583297 102.75,30.275 C101.716661,30.9916702 100.48334,31.35 99.05,31.35 C97.04999,31.35 95.516672,30.8333385 94.45,29.8 C93.383328,28.7666615 92.8000005,27.1000115 92.7,24.8 Z M104.25,20.3 L92.7,20.3 C92.7333335,19.7999975 92.8416657,19.2333365 93.025,18.6 C93.2083342,17.9666635 93.5249977,17.3666695 93.975,16.8 C94.4250022,16.2333305 95.0249962,15.7583353 95.775,15.375 C96.5250037,14.9916647 97.466661,14.8 98.6,14.8 C100.333342,14.8 101.624996,15.266662 102.475,16.2 C103.325004,17.133338 103.916665,18.499991 104.25,20.3 Z M125.1,11.95 L119.5,11.95 L119.5,29.9 C119.5,30.9333385 119.616666,31.749997 119.85,32.35 C120.083335,32.950003 120.441664,33.4083318 120.925,33.725 C121.408336,34.0416682 121.991663,34.233333 122.675,34.3 C123.358337,34.366667 124.149995,34.3833335 125.05,34.35 L125.05,36 C124.083328,36.066667 123.141671,36.0583338 122.225,35.975 C121.308329,35.8916663 120.500003,35.6416688 119.8,35.225 C119.099997,34.8083313 118.541669,34.1833375 118.125,33.35 C117.708331,32.5166625 117.533333,31.366674 117.6,29.9 L117.6,11.95 L112.85,11.95 L112.85,10.3 L117.6,10.3 L117.6,2.3 L119.5,2.3 L119.5,10.3 L125.1,10.3 L125.1,11.95 Z M130.5,0.3 L130.5,15.8 L130.6,15.8 C130.933335,14.8333285 131.40833,13.9750037 132.025,13.225 C132.64167,12.4749963 133.358329,11.833336 134.175,11.3 C134.991671,10.766664 135.883329,10.366668 136.85,10.1 C137.816671,9.833332 138.799995,9.7 139.8,9.7 C141.300007,9.7 142.574995,9.8833315 143.625,10.25 C144.675005,10.6166685 145.53333,11.099997 146.2,11.7 C146.86667,12.300003 147.391665,12.9749963 147.775,13.725 C148.158335,14.4750037 148.433333,15.2333295 148.6,16 C148.766667,16.7666705 148.866667,17.5083298 148.9,18.225 C148.933334,18.9416703 148.95,19.566664 148.95,20.1 L148.95,36 L147.05,36 L147.05,19.75 C147.05,19.1166635 147,18.3166715 146.9,17.35 C146.8,16.3833285 146.508336,15.4583378 146.025,14.575 C145.541664,13.6916623 144.808338,12.9333365 143.825,12.3 C142.841662,11.6666635 141.483342,11.35 139.75,11.35 C138.283326,11.35 136.983339,11.616664 135.85,12.15 C134.716661,12.683336 133.750004,13.4249952 132.95,14.375 C132.149996,15.3250048 131.541669,16.4583267 131.125,17.775 C130.708331,19.0916732 130.5,20.5333255 130.5,22.1 L130.5,36 L128.6,36 L128.6,0.3 L130.5,0.3 Z M155.3,23.4 L155.3,23.7 C155.3,25.2000075 155.499998,26.6333265 155.9,28 C156.300002,29.3666735 156.891663,30.5666615 157.675,31.6 C158.458337,32.6333385 159.441661,33.449997 160.625,34.05 C161.808339,34.650003 163.183326,34.95 164.75,34.95 C167.31668,34.95 169.349992,34.2750067 170.85,32.925 C172.350008,31.5749933 173.38333,29.700012 173.95,27.3 L175.85,27.3 C175.283331,30.300015 174.058343,32.599992 172.175,34.2 C170.291657,35.800008 167.800016,36.6 164.7,36.6 C162.799991,36.6 161.141674,36.2583368 159.725,35.575 C158.308326,34.8916632 157.125005,33.9583392 156.175,32.775 C155.224995,31.5916608 154.516669,30.1916748 154.05,28.575 C153.583331,26.9583253 153.35,25.216676 153.35,23.35 C153.35,21.549991 153.591664,19.8250082 154.075,18.175 C154.558336,16.5249917 155.283329,15.0750063 156.25,13.825 C157.216671,12.5749938 158.424993,11.5750038 159.875,10.825 C161.325007,10.0749962 163.033323,9.7 165,9.7 C166.800009,9.7 168.39166,10.03333 169.775,10.7 C171.15834,11.36667 172.316662,12.2749942 173.25,13.425 C174.183338,14.5750058 174.891664,15.9083258 175.375,17.425 C175.858336,18.9416743 176.1,20.566658 176.1,22.3 C176.1,22.4666675 176.091667,22.6583323 176.075,22.875 C176.058333,23.0916677 176.05,23.266666 176.05,23.4 L155.3,23.4 Z M174.15,21.75 C174.083333,20.349993 173.850002,19.0250062 173.45,17.775 C173.049998,16.5249937 172.458337,15.4250047 171.675,14.475 C170.891663,13.5249952 169.941672,12.7666695 168.825,12.2 C167.708328,11.6333305 166.43334,11.35 165,11.35 C163.466659,11.35 162.116672,11.6416637 160.95,12.225 C159.783327,12.8083362 158.800004,13.5749953 158,14.525 C157.199996,15.4750048 156.583336,16.583327 156.15,17.85 C155.716665,19.116673 155.45,20.41666 155.35,21.75 L174.15,21.75 Z M198.85,32.7 L198.85,36 L205.6,36 L205.6,0.3 L198.5,0.3 L198.5,13.3 L198.4,13.3 C197.599996,12.033327 196.50834,11.0750033 195.125,10.425 C193.74166,9.77499675 192.283341,9.45 190.75,9.45 C188.84999,9.45 187.18334,9.82499625 185.75,10.575 C184.316659,11.3250038 183.125005,12.3166605 182.175,13.55 C181.224995,14.7833395 180.508336,16.2083253 180.025,17.825 C179.541664,19.4416748 179.3,21.116658 179.3,22.85 C179.3,24.650009 179.541664,26.383325 180.025,28.05 C180.508336,29.716675 181.224995,31.1916602 182.175,32.475 C183.125005,33.7583398 184.333326,34.7749963 185.8,35.525 C187.266674,36.2750037 188.966657,36.65 190.9,36.65 C192.600008,36.65 194.124993,36.3416697 195.475,35.725 C196.825007,35.1083302 197.916662,34.100007 198.75,32.7 L198.85,32.7 Z M198.75,23 C198.75,24.066672 198.650001,25.099995 198.45,26.1 C198.249999,27.100005 197.916669,27.9916627 197.45,28.775 C196.983331,29.5583372 196.358337,30.183331 195.575,30.65 C194.791663,31.116669 193.816672,31.35 192.65,31.35 C191.549994,31.35 190.608337,31.1083358 189.825,30.625 C189.041663,30.1416642 188.391669,29.5083373 187.875,28.725 C187.358331,27.9416628 186.983335,27.050005 186.75,26.05 C186.516665,25.049995 186.4,24.050005 186.4,23.05 C186.4,21.983328 186.508332,20.9583382 186.725,19.975 C186.941668,18.9916617 187.291664,18.1166705 187.775,17.35 C188.258336,16.5833295 188.899996,15.966669 189.7,15.5 C190.500004,15.033331 191.483327,14.8 192.65,14.8 C193.816672,14.8 194.783329,15.033331 195.55,15.5 C196.31667,15.966669 196.941664,16.5749962 197.425,17.325 C197.908336,18.0750038 198.249999,18.9416618 198.45,19.925 C198.650001,20.9083382 198.75,21.933328 198.75,23 Z M210.95,10.15 L210.95,36 L218.05,36 L218.05,24.35 C218.05,23.1833275 218.166666,22.100005 218.4,21.1 C218.633335,20.099995 219.024997,19.2250037 219.575,18.475 C220.125003,17.7249963 220.849995,17.1333355 221.75,16.7 C222.650005,16.2666645 223.749994,16.05 225.05,16.05 C225.483336,16.05 225.933331,16.0749997 226.4,16.125 C226.866669,16.1750002 227.266665,16.233333 227.6,16.3 L227.6,9.7 C227.033331,9.5333325 226.516669,9.45 226.05,9.45 C225.149995,9.45 224.283337,9.583332 223.45,9.85 C222.616662,10.116668 221.833337,10.4916642 221.1,10.975 C220.366663,11.4583358 219.71667,12.0416633 219.15,12.725 C218.58333,13.4083367 218.133335,14.149996 217.8,14.95 L217.7,14.95 L217.7,10.15 L210.95,10.15 Z M230.1,18.1 L237.2,18.1 C237.333334,16.699993 237.799996,15.700003 238.6,15.1 C239.400004,14.499997 240.499993,14.2 241.9,14.2 C242.533336,14.2 243.124997,14.2416663 243.675,14.325 C244.225003,14.4083337 244.708331,14.5749988 245.125,14.825 C245.541669,15.0750013 245.874999,15.4249977 246.125,15.875 C246.375001,16.3250023 246.5,16.9333295 246.5,17.7 C246.533333,18.433337 246.316669,18.9916648 245.85,19.375 C245.383331,19.7583353 244.750004,20.049999 243.95,20.25 C243.149996,20.450001 242.233338,20.5999995 241.2,20.7 C240.166661,20.8000005 239.116672,20.9333325 238.05,21.1 C236.983328,21.2666675 235.925005,21.4916652 234.875,21.775 C233.824995,22.0583348 232.891671,22.4833305 232.075,23.05 C231.258329,23.6166695 230.591669,24.3749952 230.075,25.325 C229.558331,26.2750047 229.3,27.483326 229.3,28.95 C229.3,30.28334 229.524998,31.4333285 229.975,32.4 C230.425002,33.3666715 231.049996,34.1666635 231.85,34.8 C232.650004,35.4333365 233.583328,35.8999985 234.65,36.2 C235.716672,36.5000015 236.86666,36.65 238.1,36.65 C239.700008,36.65 241.266659,36.416669 242.8,35.95 C244.333341,35.483331 245.666661,34.6666725 246.8,33.5 C246.833333,33.9333355 246.891666,34.3583312 246.975,34.775 C247.058334,35.1916688 247.166666,35.599998 247.3,36 L254.5,36 C254.166665,35.466664 253.933334,34.666672 253.8,33.6 C253.666666,32.533328 253.6,31.4166725 253.6,30.25 L253.6,16.8 C253.6,15.2333255 253.250003,13.9750047 252.55,13.025 C251.849996,12.0749953 250.950005,11.333336 249.85,10.8 C248.749994,10.266664 247.53334,9.90833425 246.2,9.725 C244.86666,9.54166575 243.550006,9.45 242.25,9.45 C240.816659,9.45 239.391674,9.59166525 237.975,9.875 C236.558326,10.1583347 235.283339,10.63333 234.15,11.3 C233.016661,11.96667 232.083337,12.8499945 231.35,13.95 C230.616663,15.0500055 230.2,16.433325 230.1,18.1 Z M246.5,23.35 L246.5,26 C246.5,26.400002 246.458334,26.93333 246.375,27.6 C246.291666,28.26667 246.066668,28.9249967 245.7,29.575 C245.333331,30.2250032 244.76667,30.783331 244,31.25 C243.23333,31.716669 242.150007,31.95 240.75,31.95 C240.18333,31.95 239.633336,31.9000005 239.1,31.8 C238.566664,31.6999995 238.100002,31.5250013 237.7,31.275 C237.299998,31.0249988 236.983334,30.6833355 236.75,30.25 C236.516665,29.8166645 236.4,29.2833365 236.4,28.65 C236.4,27.98333 236.516665,27.4333355 236.75,27 C236.983334,26.5666645 237.291665,26.2083348 237.675,25.925 C238.058335,25.6416653 238.508331,25.4166675 239.025,25.25 C239.541669,25.0833325 240.066664,24.9500005 240.6,24.85 C241.166669,24.7499995 241.73333,24.666667 242.3,24.6 C242.86667,24.533333 243.408331,24.4500005 243.925,24.35 C244.441669,24.2499995 244.924998,24.1250007 245.375,23.975 C245.825002,23.8249993 246.199998,23.616668 246.5,23.35 Z M260.65,14.9 L260.65,36 L267.75,36 L267.75,14.9 L272.65,14.9 L272.65,10.15 L267.75,10.15 L267.75,8.6 C267.75,7.533328 267.958331,6.77500225 268.375,6.325 C268.791669,5.87499775 269.483328,5.65 270.45,5.65 C271.350004,5.65 272.216662,5.6999995 273.05,5.8 L273.05,0.5 C272.449997,0.4666665 271.833336,0.42500025 271.2,0.375 C270.566664,0.32499975 269.933336,0.3 269.3,0.3 C266.399985,0.3 264.23334,1.033326 262.8,2.5 C261.366659,3.966674 260.65,5.8499885 260.65,8.15 L260.65,10.15 L256.4,10.15 L256.4,14.9 L260.65,14.9 Z M286.75,10.15 L286.75,2.4 L279.65,2.4 L279.65,10.15 L275.35,10.15 L275.35,14.9 L279.65,14.9 L279.65,30.15 C279.65,31.4500065 279.866664,32.499996 280.3,33.3 C280.733335,34.100004 281.324996,34.7166645 282.075,35.15 C282.825004,35.5833355 283.691662,35.8749993 284.675,36.025 C285.658338,36.1750008 286.699995,36.25 287.8,36.25 C288.500003,36.25 289.216663,36.2333335 289.95,36.2 C290.683337,36.1666665 291.349997,36.1000005 291.95,36 L291.95,30.5 C291.616665,30.566667 291.266668,30.6166665 290.9,30.65 C290.533331,30.6833335 290.150002,30.7 289.75,30.7 C288.549994,30.7 287.750002,30.500002 287.35,30.1 C286.949998,29.699998 286.75,28.900006 286.75,27.7 L286.75,14.9 L291.95,14.9 L291.95,10.15 L286.75,10.15 Z" fill="#FFFFFF"></path>
</svg>
